<svg t="1739682438876" class="icon" viewBox="0 0 1024 1024" version="1.1" xmlns="http://www.w3.org/2000/svg" p-id="26324" width="200" height="200"><path d="M1010.901333 456.789333l-201.813333-349.226666c-17.493333-30.293333-60.458667-55.210667-95.573333-55.210667h-403.2c-34.986667 0-78.122667 24.917333-95.573334 55.210667L13.056 456.789333c-17.493333 30.293333-17.493333 79.914667 0 110.250667l201.6 349.397333c17.493333 30.293333 60.458667 55.210667 95.573333 55.210667h403.413334c34.986667 0 77.909333-24.917333 95.573333-55.210667l201.642667-349.44c17.493333-30.293333 17.493333-79.914667 0-110.208zM468.309333 245.546667c0-22.912 18.688-41.6 41.557334-41.6s41.6 18.688 41.6 41.6v248.362666a41.642667 41.642667 0 0 1-83.114667 0z m41.557334 530.346666a282.282667 282.282667 0 0 1-281.898667-281.984A283.221333 283.221333 0 0 1 341.76 267.605333a36.949333 36.949333 0 0 1 51.797333 7.68 36.949333 36.949333 0 0 1-7.594666 51.754667 208.042667 208.042667 0 0 0 247.978666 333.952 208 208 0 0 0 83.925334-167.082667 208.938667 208.938667 0 0 0-84.736-167.466666 37.12 37.12 0 0 1-7.808-51.797334 37.12 37.12 0 0 1 51.797333-7.808 282.922667 282.922667 0 0 1 114.645333 227.072 282.154667 282.154667 0 0 1-281.941333 281.941334z" p-id="26325"></path></svg>