<svg t="1739682421719" class="icon" viewBox="0 0 1024 1024" version="1.1" xmlns="http://www.w3.org/2000/svg" p-id="25210" width="200" height="200"><path d="M512 209.066667c-136.533333 0-221.866667 64-256 200.533333C307.2 341.333333 366.933333 315.733333 435.2 332.8c38.4 8.533333 68.266667 38.4 98.133333 68.266667C584.533333 452.266667 640 512 768 512c136.533333 0 221.866667-68.266667 251.733333-204.8-51.2 68.266667-110.933333 93.866667-179.2 76.8-38.4-8.533333-68.266667-38.4-98.133333-68.266667-46.933333-51.2-106.666667-106.666667-230.4-106.666666zM256 512c-136.533333 0-221.866667 68.266667-256 204.8 51.2-68.266667 110.933333-93.866667 179.2-76.8 38.4 8.533333 68.266667 38.4 98.133333 68.266667 51.2 51.2 106.666667 110.933333 234.666667 110.933333 136.533333 0 221.866667-68.266667 251.733333-204.8-51.2 68.266667-110.933333 93.866667-179.2 76.8-38.4-8.533333-68.266667-38.4-98.133333-68.266667C439.466667 571.733333 384 512 256 512z" p-id="25211"></path></svg>