<svg t="1739682404643" class="icon" viewBox="0 0 1024 1024" version="1.1" xmlns="http://www.w3.org/2000/svg" p-id="23225" width="200" height="200"><path d="M512.853333 556.8l205.226667-353.706667 37.12-64h-112.213333c-29.013333 0-56.32 15.36-70.826667 40.96l-60.586667 105.386667-62.293333-106.24c-14.506667-24.746667-41.386667-40.106667-70.4-40.106667H268.8l37.546667 64 206.506666 353.706667z" fill="#000000" p-id="23226"></path><path d="M925.013333 189.013333a98.944 98.944 0 0 0-86.613333-49.92h-8.96l-37.12 64-251.733333 435.626667c-5.546667 10.24-16.213333 16.213333-27.733334 16.213333s-21.76-5.973333-27.733333-15.786666L231.68 203.093333l-37.12-64h-8.96c-36.266667 0-68.693333 18.773333-86.613333 49.92-18.346667 31.573333-18.346667 69.12 0 100.266667l311.466666 537.173333c21.333333 36.693333 59.306667 58.453333 101.546667 58.453334s80.213333-21.76 101.546667-58.453334l311.466666-537.173333c18.346667-31.146667 18.346667-68.693333 0-100.266667z" fill="#000000" p-id="23227"></path></svg>